<?xml version="1.0" encoding="UTF-8"?>
<svg xmlns="http://www.w3.org/2000/svg" xmlns:xlink="http://www.w3.org/1999/xlink" width="428px" height="194px" viewBox="0 0 322 146" version="1.1">
<g id="surface1">
<path style=" stroke:none;fill-rule:nonzero;fill:rgb(33.333334%,45.09804%,99.607843%);fill-opacity:1;" d="M 62.839844 7.976562 C 65.535156 9.535156 65.535156 9.535156 68.460938 10.535156 C 70.488281 9.644531 70.488281 9.644531 72.414062 8.136719 C 81.601562 1.839844 92.519531 1.128906 103.363281 2.605469 C 108.800781 3.816406 113.429688 6.054688 118.117188 9.03125 C 118.707031 9.402344 119.292969 9.769531 119.902344 10.152344 C 126.78125 14.957031 131.984375 22.949219 134.667969 30.855469 C 134.835938 31.347656 135.003906 31.84375 135.175781 32.351562 C 138.1875 43.226562 136.167969 54.816406 131.117188 64.675781 C 130.152344 66.226562 130.152344 66.226562 128.90625 67.328125 C 127.730469 68.464844 127.730469 68.464844 127.625 70.3125 C 127.941406 72.570312 128.585938 73.558594 129.964844 75.351562 C 136.253906 84.246094 137.359375 95.066406 135.800781 105.632812 C 133.296875 116.542969 127.152344 125.828125 118.117188 132.453125 C 110.199219 137.058594 103.746094 138.746094 94.652344 138.757812 C 93.773438 138.773438 92.894531 138.792969 91.988281 138.8125 C 83.425781 138.839844 77.144531 136.542969 70.109375 131.757812 C 68.082031 130.761719 67.550781 131.019531 65.453125 131.699219 C 64.492188 132.128906 63.542969 132.585938 62.605469 133.066406 C 61.820312 133.464844 61.820312 133.464844 61.019531 133.871094 C 60.480469 134.148438 59.941406 134.425781 59.386719 134.710938 C 58.3125 135.261719 57.238281 135.808594 56.164062 136.359375 C 55.691406 136.601562 55.21875 136.84375 54.730469 137.09375 C 50.480469 139.121094 45.988281 138.671875 41.378906 138.710938 C 40.488281 138.730469 39.601562 138.753906 38.683594 138.777344 C 28.109375 138.851562 18.871094 134.855469 11.023438 127.746094 C 2.738281 118.988281 -0.148438 109.511719 -0.234375 97.789062 C -0.257812 96.820312 -0.277344 95.851562 -0.300781 94.855469 C -0.359375 86.058594 1.863281 80.382812 6.714844 73.171875 C 7.65625 71.578125 7.65625 71.578125 7.410156 69.996094 C 6.363281 67.515625 4.886719 65.34375 3.4375 63.085938 C -0.113281 56.6875 -0.371094 51.367188 -0.328125 44.121094 C -0.34375 43.167969 -0.359375 42.21875 -0.375 41.238281 C -0.371094 35.371094 0.308594 30.8125 3.007812 25.585938 C 3.378906 24.863281 3.75 24.136719 4.132812 23.390625 C 10.476562 12.976562 18.992188 6.089844 30.941406 2.773438 C 42.117188 0.6875 53.066406 2.179688 62.839844 7.976562 Z M 62.839844 7.976562 "/>
<path style=" stroke:none;fill-rule:nonzero;fill:rgb(98.823529%,99.215686%,99.607843%);fill-opacity:1;" d="M 79.746094 31.609375 C 81.910156 32.902344 81.910156 32.902344 83.507812 34.242188 C 84.050781 34.683594 84.59375 35.128906 85.15625 35.582031 C 86.519531 36.875 86.519531 36.875 88.023438 39.132812 C 88.023438 43.542969 85.605469 46.523438 82.757812 49.671875 C 80.097656 51.441406 79.117188 51.542969 75.984375 51.175781 C 73.636719 49.765625 73.636719 49.765625 71.472656 48.164062 C 69.125 46.757812 67.378906 46.457031 64.652344 46.472656 C 64.007812 46.46875 63.363281 46.464844 62.699219 46.460938 C 60.734375 46.546875 60.734375 46.546875 58.683594 48.164062 C 57.863281 50.703125 57.863281 50.703125 57.929688 53.433594 C 60.054688 56.207031 61.84375 56.882812 65.21875 57.476562 C 84.234375 61.453125 84.234375 61.453125 89.746094 69.074219 C 93.039062 74.902344 92.785156 83.039062 91.289062 89.417969 C 88.691406 95.886719 84.125 100.203125 77.886719 103.097656 C 73.582031 104.816406 69.914062 105.632812 65.265625 105.597656 C 64.699219 105.589844 64.132812 105.585938 63.550781 105.582031 C 54.210938 105.378906 47.480469 101.949219 40.957031 95.296875 C 39.15625 93.148438 37.945312 91.539062 37.710938 88.710938 C 38.746094 84.117188 41.292969 81.585938 45.140625 79.019531 C 47.6875 78.476562 49.125 78.679688 51.320312 80.09375 C 53.0625 81.449219 54.75 82.847656 56.425781 84.289062 C 60.65625 87.710938 63.011719 88.597656 68.460938 88.050781 C 71.292969 86.761719 71.292969 86.761719 72.976562 84.289062 C 73.351562 81.6875 73.351562 81.6875 72.976562 79.019531 C 69.945312 76.613281 66.449219 75.933594 62.773438 75.023438 C 53.542969 72.570312 45.632812 69.640625 40.5625 61.085938 C 38.277344 56.105469 38.269531 49.976562 39.613281 44.738281 C 42.300781 38.046875 47.0625 33.175781 53.582031 30.152344 C 61.957031 27.789062 71.679688 28.398438 79.746094 31.609375 Z M 79.746094 31.609375 "/>
<path style=" stroke:none;fill-rule:nonzero;fill:rgb(41.960785%,52.549022%,99.607843%);fill-opacity:1;" d="M 186.578125 40.640625 C 187.941406 40.78125 187.941406 40.78125 189.589844 41.390625 C 192.050781 44.8125 193.386719 48.828125 194.902344 52.726562 C 195.425781 54.070312 195.953125 55.410156 196.480469 56.753906 C 196.824219 57.636719 196.824219 57.636719 197.175781 58.542969 C 197.835938 60.214844 197.835938 60.214844 198.699219 61.773438 C 199.632812 63.78125 199.46875 65.546875 199.371094 67.730469 C 200.113281 67.359375 200.113281 67.359375 200.875 66.980469 C 200.863281 66.261719 200.851562 65.542969 200.839844 64.804688 C 200.796875 62.140625 200.769531 59.476562 200.75 56.8125 C 200.738281 55.660156 200.722656 54.507812 200.703125 53.355469 C 200.675781 51.699219 200.664062 50.042969 200.652344 48.386719 C 200.640625 47.871094 200.628906 47.355469 200.617188 46.824219 C 200.617188 43.226562 200.617188 43.226562 202.015625 41.425781 C 202.382812 41.164062 202.75 40.90625 203.128906 40.640625 C 206.488281 42.34375 208.46875 44.617188 210.652344 47.601562 C 210.964844 48.011719 211.273438 48.425781 211.59375 48.851562 C 213.839844 51.847656 216.007812 54.894531 218.175781 57.949219 C 218.164062 57.503906 218.152344 57.058594 218.140625 56.601562 C 218.09375 54.589844 218.066406 52.578125 218.035156 50.5625 C 218.019531 49.863281 218 49.164062 217.980469 48.445312 C 217.972656 47.773438 217.964844 47.101562 217.957031 46.410156 C 217.945312 45.792969 217.933594 45.171875 217.921875 44.535156 C 218.234375 42.539062 218.894531 41.894531 220.433594 40.640625 C 221.425781 41.136719 222.421875 41.632812 223.445312 42.144531 C 223.460938 45.667969 223.476562 49.191406 223.484375 52.714844 C 223.488281 53.914062 223.496094 55.113281 223.5 56.3125 C 223.511719 58.03125 223.515625 59.753906 223.515625 61.472656 C 223.519531 62.011719 223.523438 62.550781 223.527344 63.109375 C 223.53125 64.398438 223.492188 65.6875 223.445312 66.980469 C 222.691406 67.730469 222.691406 67.730469 220.929688 67.949219 C 218.929688 67.730469 218.929688 67.730469 217.546875 66.59375 C 217.132812 66.070312 216.714844 65.550781 216.285156 65.011719 C 215.824219 64.445312 215.367188 63.878906 214.890625 63.292969 C 214.425781 62.695312 213.957031 62.09375 213.476562 61.476562 C 212.996094 60.886719 212.515625 60.292969 212.023438 59.683594 C 208.519531 55.300781 208.519531 55.300781 207.644531 52.679688 C 207.148438 52.679688 206.652344 52.679688 206.140625 52.679688 C 206.144531 53.109375 206.148438 53.539062 206.152344 53.980469 C 206.167969 55.914062 206.175781 57.847656 206.1875 59.78125 C 206.195312 60.457031 206.199219 61.132812 206.207031 61.832031 C 206.207031 62.472656 206.210938 63.117188 206.214844 63.777344 C 206.21875 64.375 206.222656 64.96875 206.226562 65.582031 C 206.140625 66.980469 206.140625 66.980469 205.386719 67.730469 C 204.132812 67.761719 202.878906 67.765625 201.625 67.730469 C 201.378906 68.476562 201.128906 69.222656 200.875 69.988281 C 198.28125 69.773438 197.292969 69.417969 195.417969 67.542969 C 194.105469 65.476562 193.75 64.085938 193.351562 61.710938 C 189.757812 61.632812 186.335938 61.679688 182.816406 62.464844 C 181.042969 64.265625 180.355469 66.035156 179.808594 68.484375 C 178.566406 68.234375 177.324219 67.988281 176.046875 67.730469 C 176.503906 64.171875 177.503906 61.167969 178.867188 57.855469 C 179.066406 57.367188 179.269531 56.878906 179.472656 56.375 C 179.882812 55.375 180.296875 54.378906 180.710938 53.378906 C 181.277344 52.011719 181.835938 50.636719 182.394531 49.265625 C 184.871094 43.199219 184.871094 43.199219 186.578125 40.640625 Z M 187.332031 49.671875 C 186.339844 52.152344 185.34375 54.636719 184.324219 57.195312 C 186.558594 57.195312 188.792969 57.195312 191.09375 57.195312 C 190.101562 54.710938 189.105469 52.230469 188.085938 49.671875 C 187.835938 49.671875 187.585938 49.671875 187.332031 49.671875 Z M 187.332031 49.671875 "/>
<path style=" stroke:none;fill-rule:nonzero;fill:rgb(40.392157%,50.980395%,99.607843%);fill-opacity:1;" d="M 306.953125 73.753906 C 309.179688 74.527344 309.878906 75.109375 311.050781 77.199219 C 311.378906 78.003906 311.703125 78.804688 312.039062 79.632812 C 312.402344 80.503906 312.761719 81.375 313.132812 82.273438 C 313.5 83.1875 313.863281 84.101562 314.242188 85.042969 C 314.980469 86.84375 315.71875 88.648438 316.460938 90.449219 C 316.945312 91.652344 316.945312 91.652344 317.441406 92.882812 C 318.1875 94.769531 318.1875 94.769531 318.992188 96.328125 C 319.019531 97.835938 319.023438 99.339844 318.992188 100.84375 C 317.128906 101.21875 317.128906 101.21875 315.230469 101.597656 C 314.234375 99.609375 313.242188 97.625 312.21875 95.578125 C 308.894531 95.226562 305.75 95.027344 302.4375 95.578125 C 301.042969 97.042969 300.402344 98.417969 299.554688 100.242188 C 298.675781 101.597656 298.675781 101.597656 297.257812 102.128906 C 294.300781 102.277344 292.933594 101.792969 290.496094 100.046875 C 288.722656 97.59375 288.121094 95.480469 287.390625 92.566406 C 284.8125 91.277344 281.960938 91.773438 279.117188 91.8125 C 279.117188 94.546875 279.117188 97.277344 279.117188 100.09375 C 278.125 100.589844 277.128906 101.085938 276.109375 101.597656 C 275.363281 101.101562 274.617188 100.605469 273.851562 100.09375 C 273.640625 98.179688 273.570312 96.453125 273.605469 94.539062 C 273.605469 93.71875 273.605469 93.71875 273.609375 92.882812 C 273.613281 91.722656 273.625 90.566406 273.640625 89.410156 C 273.664062 87.632812 273.667969 85.855469 273.675781 84.078125 C 273.679688 82.957031 273.6875 81.832031 273.699219 80.710938 C 273.699219 80.175781 273.703125 79.640625 273.707031 79.089844 C 273.761719 75.347656 273.761719 75.347656 274.601562 74.503906 C 277.039062 74.273438 279.492188 74.296875 281.9375 74.269531 C 282.621094 74.25 283.304688 74.226562 284.007812 74.203125 C 287.195312 74.171875 289.132812 74.210938 291.941406 75.816406 C 294.179688 78.402344 294.816406 80.894531 294.914062 84.289062 C 293.789062 86.171875 293.789062 86.171875 292.660156 88.050781 C 292.9375 91.617188 294.050781 94.675781 295.667969 97.835938 C 295.902344 97.210938 296.136719 96.589844 296.378906 95.949219 C 297.261719 93.628906 298.148438 91.3125 299.039062 88.996094 C 299.421875 87.996094 299.804688 86.996094 300.179688 85.992188 C 300.726562 84.546875 301.28125 83.105469 301.839844 81.667969 C 302.171875 80.800781 302.5 79.933594 302.84375 79.039062 C 303.945312 76.757812 305.058594 75.40625 306.953125 73.753906 Z M 279.117188 79.019531 C 279.117188 81.753906 279.117188 84.484375 279.117188 87.300781 C 280.453125 87.328125 281.785156 87.359375 283.160156 87.394531 C 283.910156 87.410156 284.660156 87.429688 285.433594 87.445312 C 287.515625 87.503906 287.515625 87.503906 288.898438 85.792969 C 289.148438 83.160156 289.148438 83.160156 288.898438 80.527344 C 287.515625 78.816406 287.515625 78.816406 285.433594 78.875 C 284.683594 78.890625 283.933594 78.910156 283.160156 78.925781 C 281.828125 78.957031 280.492188 78.988281 279.117188 79.019531 Z M 306.953125 82.785156 C 306.449219 83.878906 305.949219 84.976562 305.449219 86.074219 C 305.167969 86.6875 304.890625 87.296875 304.601562 87.929688 C 303.851562 89.496094 303.851562 89.496094 303.945312 91.0625 C 305.929688 91.0625 307.917969 91.0625 309.960938 91.0625 C 310.210938 90.566406 310.460938 90.070312 310.714844 89.558594 C 310.007812 88.277344 309.25 87.023438 308.457031 85.792969 C 307.949219 84.792969 307.445312 83.792969 306.953125 82.785156 Z M 306.953125 82.785156 "/>
<path style=" stroke:none;fill-rule:nonzero;fill:rgb(41.176471%,51.764709%,99.607843%);fill-opacity:1;" d="M 260.308594 73.753906 C 262.566406 74.503906 262.566406 74.503906 263.488281 76.1875 C 263.78125 76.917969 264.074219 77.648438 264.378906 78.398438 C 264.703125 79.191406 265.03125 79.988281 265.363281 80.808594 C 265.863281 82.066406 265.863281 82.066406 266.375 83.347656 C 266.710938 84.175781 267.046875 85 267.390625 85.851562 C 268.300781 88.085938 269.195312 90.328125 270.089844 92.566406 C 270.371094 93.226562 270.652344 93.882812 270.941406 94.5625 C 271.738281 96.726562 271.699219 98.554688 271.59375 100.84375 C 270.105469 101.21875 270.105469 101.21875 268.585938 101.597656 C 267.082031 99.246094 266.261719 97.578125 265.574219 94.824219 C 262.097656 94.824219 258.625 94.824219 255.042969 94.824219 C 254.546875 96.316406 254.050781 97.804688 253.539062 99.339844 C 253.039062 100.085938 252.542969 100.832031 252.03125 101.597656 C 248.527344 102 246.847656 102.09375 243.804688 100.28125 C 242.28125 98.621094 241.734375 97.785156 241.5 95.578125 C 241.003906 95.578125 240.507812 95.578125 239.996094 95.578125 C 239.027344 94.425781 239.027344 94.425781 238.019531 92.941406 C 237.683594 92.453125 237.347656 91.964844 237.003906 91.460938 C 236.75 91.082031 236.496094 90.699219 236.234375 90.308594 C 234.742188 91.054688 234.742188 91.054688 233.222656 91.8125 C 233.238281 92.746094 233.253906 93.675781 233.269531 94.636719 C 233.273438 96.828125 233.171875 98.746094 232.472656 100.84375 C 230.980469 100.84375 229.492188 100.84375 227.957031 100.84375 C 227.054688 96.011719 227.066406 91.308594 227.066406 86.40625 C 227.054688 85.511719 227.046875 84.617188 227.035156 83.695312 C 227.035156 82.839844 227.035156 81.984375 227.03125 81.105469 C 227.027344 80.324219 227.027344 79.546875 227.023438 78.742188 C 227.207031 76.761719 227.207031 76.761719 228.710938 74.503906 C 230.683594 74.363281 230.683594 74.363281 232.472656 74.503906 C 233.25 76.839844 233.324219 78.503906 233.316406 80.949219 C 233.320312 81.679688 233.320312 82.410156 233.324219 83.164062 C 233.222656 85.042969 233.222656 85.042969 232.472656 86.546875 C 234.378906 84.65625 236.257812 82.757812 238.089844 80.796875 C 238.703125 80.148438 239.316406 79.5 239.949219 78.832031 C 240.558594 78.175781 241.171875 77.519531 241.800781 76.84375 C 244.019531 75.042969 245.457031 74.71875 248.269531 74.503906 C 248.507812 76.136719 248.507812 76.136719 248.269531 78.269531 C 246.625 80.28125 246.625 80.28125 244.507812 82.265625 C 243.460938 83.261719 243.460938 83.261719 242.394531 84.28125 C 241.851562 84.78125 241.308594 85.277344 240.746094 85.792969 C 241.417969 86.832031 242.09375 87.863281 242.769531 88.898438 C 243.144531 89.472656 243.519531 90.050781 243.90625 90.644531 C 245.5 92.90625 247.234375 94.976562 249.023438 97.082031 C 249.238281 96.53125 249.457031 95.980469 249.679688 95.414062 C 250.664062 92.914062 251.652344 90.410156 252.644531 87.910156 C 252.984375 87.042969 253.324219 86.179688 253.675781 85.285156 C 254.007812 84.449219 254.339844 83.613281 254.679688 82.75 C 254.984375 81.984375 255.289062 81.214844 255.601562 80.421875 C 258.03125 74.890625 258.03125 74.890625 260.308594 73.753906 Z M 259.554688 82.785156 C 259.175781 83.738281 258.800781 84.695312 258.425781 85.652344 C 258.21875 86.183594 258.007812 86.71875 257.792969 87.265625 C 257.183594 88.894531 257.183594 88.894531 257.300781 91.0625 C 259.285156 91.0625 261.269531 91.0625 263.316406 91.0625 C 262.730469 88.113281 261.519531 85.519531 260.308594 82.785156 C 260.058594 82.785156 259.8125 82.785156 259.554688 82.785156 Z M 259.554688 82.785156 "/>
<path style=" stroke:none;fill-rule:nonzero;fill:rgb(43.137255%,53.333336%,99.607843%);fill-opacity:1;" d="M 182.066406 73.753906 C 184.324219 74.503906 184.324219 74.503906 185.074219 76.011719 C 185.179688 79.023438 185.105469 82.027344 185.074219 85.042969 C 190.289062 85.414062 190.289062 85.414062 195.609375 85.792969 C 195.5625 84.226562 195.515625 82.660156 195.464844 81.042969 C 195.328125 76.445312 195.328125 76.445312 196.558594 74.519531 C 197.863281 73.753906 197.863281 73.753906 200.875 74.503906 C 200.875 83.199219 200.875 91.890625 200.875 100.84375 C 199.382812 101.21875 199.382812 101.21875 197.863281 101.597656 C 196.558594 100.808594 196.558594 100.808594 195.609375 99.339844 C 195.304688 96.304688 195.507812 93.367188 195.609375 90.308594 C 192.378906 90.308594 189.152344 90.308594 185.828125 90.308594 C 185.230469 92.703125 185.019531 94.03125 185.121094 96.375 C 185.074219 99.339844 185.074219 99.339844 183.570312 101.597656 C 182.328125 101.347656 181.085938 101.101562 179.808594 100.84375 C 178.878906 96.722656 178.917969 92.730469 178.914062 88.523438 C 178.90625 87.757812 178.898438 86.992188 178.886719 86.207031 C 178.878906 82.027344 179.027344 78.417969 180.5625 74.503906 C 181.058594 74.257812 181.554688 74.007812 182.066406 73.753906 Z M 182.066406 73.753906 "/>
<path style=" stroke:none;fill-rule:nonzero;fill:rgb(42.352942%,52.549022%,99.607843%);fill-opacity:1;" d="M 173.039062 42.332031 C 174.542969 43.648438 174.542969 43.648438 175.199219 45.625 C 175.230469 46.214844 175.261719 46.804688 175.292969 47.414062 C 174.542969 48.164062 174.542969 48.164062 172.753906 48.304688 C 170.78125 48.164062 170.78125 48.164062 168.523438 46.660156 C 166.769531 46.601562 165.011719 46.59375 163.257812 46.660156 C 162.839844 48.222656 162.503906 49.550781 162.503906 51.175781 C 163.058594 51.257812 163.613281 51.339844 164.183594 51.425781 C 171.671875 52.644531 171.671875 52.644531 174.542969 54.9375 C 176.027344 57.910156 175.730469 61.492188 175.292969 64.722656 C 173.136719 67.171875 171.058594 68.269531 167.785156 68.664062 C 163.496094 68.808594 159.921875 68.21875 156.484375 65.472656 C 155.734375 63.40625 155.734375 63.40625 155.734375 61.710938 C 156.957031 60.816406 156.957031 60.816406 158.742188 60.207031 C 160.246094 60.957031 161.753906 61.710938 163.257812 62.464844 C 165.308594 62.660156 167.207031 62.570312 169.277344 62.464844 C 169.523438 61.46875 169.773438 60.476562 170.027344 59.453125 C 167.875 58.019531 166.554688 57.570312 164.101562 56.960938 C 160.671875 55.945312 158.539062 55.007812 156.484375 51.929688 C 155.769531 48.746094 156.109375 46.578125 157.707031 43.742188 C 162.238281 39.691406 167.695312 40.105469 173.039062 42.332031 Z M 173.039062 42.332031 "/>
<path style=" stroke:none;fill-rule:nonzero;fill:rgb(40.392157%,50.980395%,99.607843%);fill-opacity:1;" d="M 255.042969 40.640625 C 257.507812 41.332031 258.5625 41.742188 259.898438 43.984375 C 260.183594 44.738281 260.46875 45.496094 260.765625 46.273438 C 261.085938 47.101562 261.40625 47.929688 261.734375 48.78125 C 262.054688 49.648438 262.375 50.515625 262.707031 51.410156 C 263.199219 52.699219 263.199219 52.699219 263.703125 54.011719 C 264.316406 55.617188 264.925781 57.222656 265.523438 58.828125 C 266.054688 60.234375 266.609375 61.628906 267.191406 63.011719 C 267.832031 64.722656 267.832031 64.722656 267.691406 66.414062 C 267.488281 66.847656 267.289062 67.285156 267.078125 67.730469 C 265.960938 68.105469 265.960938 68.105469 264.824219 68.484375 C 262.5625 66.53125 262.289062 65.535156 261.0625 62.464844 C 255.847656 62.089844 255.847656 62.089844 250.527344 61.710938 C 250.03125 63.203125 249.535156 64.691406 249.023438 66.226562 C 248.527344 66.972656 248.03125 67.71875 247.519531 68.484375 C 246.0625 68.25 246.0625 68.25 244.507812 67.730469 C 243.515625 64.746094 244.515625 63.054688 245.683594 60.300781 C 245.890625 59.800781 246.097656 59.304688 246.308594 58.792969 C 248.890625 52.59375 251.492188 46.355469 255.042969 40.640625 Z M 255.042969 50.421875 C 254.296875 52.65625 253.550781 54.894531 252.785156 57.195312 C 254.769531 57.195312 256.757812 57.195312 258.804688 57.195312 C 258.058594 54.960938 257.3125 52.726562 256.546875 50.421875 C 256.050781 50.421875 255.554688 50.421875 255.042969 50.421875 Z M 255.042969 50.421875 "/>
<path style=" stroke:none;fill-rule:nonzero;fill:rgb(40.000001%,50.588238%,99.607843%);fill-opacity:1;" d="M 213.664062 73.753906 C 215.15625 73.828125 215.15625 73.828125 216.671875 74.503906 C 217.589844 75.933594 217.589844 75.933594 218.34375 77.796875 C 218.625 78.476562 218.90625 79.15625 219.199219 79.859375 C 219.480469 80.574219 219.765625 81.292969 220.058594 82.03125 C 220.628906 83.425781 221.203125 84.820312 221.773438 86.21875 C 222.1875 87.242188 222.1875 87.242188 222.609375 88.289062 C 223.636719 90.78125 224.753906 93.226562 225.894531 95.667969 C 226.597656 97.445312 226.695312 98.953125 226.453125 100.84375 C 225.089844 101.363281 225.089844 101.363281 223.445312 101.597656 C 221.066406 99.949219 220.824219 98.433594 219.683594 95.578125 C 216.207031 95.578125 212.730469 95.578125 209.148438 95.578125 C 208.839844 96.429688 208.527344 97.285156 208.210938 98.164062 C 206.890625 100.84375 206.890625 100.84375 205.292969 101.597656 C 204.828125 101.597656 204.363281 101.597656 203.882812 101.597656 C 203.636719 101.347656 203.386719 101.101562 203.128906 100.84375 C 203.40625 95.953125 204.816406 92.078125 206.796875 87.628906 C 207.0625 87.015625 207.328125 86.40625 207.601562 85.777344 C 208.121094 84.582031 208.640625 83.390625 209.167969 82.199219 C 209.84375 80.65625 210.488281 79.101562 211.128906 77.542969 C 212.160156 75.257812 212.160156 75.257812 213.664062 73.753906 Z M 214.414062 82.785156 C 213.910156 83.738281 213.410156 84.695312 212.910156 85.652344 C 212.632812 86.183594 212.351562 86.71875 212.066406 87.265625 C 211.257812 88.871094 211.257812 88.871094 211.40625 91.0625 C 213.394531 91.0625 215.378906 91.0625 217.425781 91.0625 C 216.917969 88.199219 216.125 85.527344 215.167969 82.785156 C 214.921875 82.785156 214.671875 82.785156 214.414062 82.785156 Z M 214.414062 82.785156 "/>
<path style=" stroke:none;fill-rule:nonzero;fill:rgb(43.137255%,53.333336%,99.607843%);fill-opacity:1;" d="M 169.605469 74.363281 C 170.316406 74.351562 171.03125 74.34375 171.765625 74.332031 C 173.824219 74.507812 175.042969 74.957031 176.800781 76.011719 C 176.800781 77.253906 176.800781 78.492188 176.800781 79.773438 C 174.382812 80.433594 172.90625 80.503906 170.402344 80.054688 C 167.804688 79.570312 167.804688 79.570312 165.65625 80.621094 C 163.644531 82.34375 163.070312 83.199219 162.503906 85.792969 C 162.453125 90.128906 162.453125 90.128906 164.328125 93.855469 C 166.835938 95.90625 168.828125 95.65625 172.003906 95.625 C 173.34375 95.613281 173.34375 95.613281 174.710938 95.605469 C 175.746094 95.589844 175.746094 95.589844 176.800781 95.578125 C 176.886719 97.375 176.886719 97.375 176.800781 99.339844 C 174.585938 101.480469 172.386719 101.804688 169.417969 101.972656 C 165.316406 101.839844 162.546875 100.542969 159.496094 97.835938 C 156.671875 94.210938 155.449219 91.328125 155.523438 86.6875 C 156.035156 82.660156 158.011719 79.445312 161.046875 76.808594 C 164.015625 74.726562 166.0625 74.386719 169.605469 74.363281 Z M 169.605469 74.363281 "/>
<path style=" stroke:none;fill-rule:nonzero;fill:rgb(40.784314%,51.372552%,99.607843%);fill-opacity:1;" d="M 270.839844 40.640625 C 272.703125 41.382812 272.703125 41.382812 274.601562 42.144531 C 274.601562 49.097656 274.601562 56.050781 274.601562 63.214844 C 277.332031 62.96875 280.066406 62.71875 282.878906 62.464844 C 284.121094 62.960938 285.359375 63.457031 286.640625 63.96875 C 286.390625 65.210938 286.144531 66.453125 285.886719 67.730469 C 280.675781 67.730469 275.460938 67.730469 270.089844 67.730469 C 269.027344 63.488281 269.195312 59.277344 269.195312 54.929688 C 269.195312 53.339844 269.183594 51.746094 269.167969 50.15625 C 269.164062 49.144531 269.164062 48.132812 269.164062 47.125 C 269.160156 46.207031 269.15625 45.285156 269.152344 44.339844 C 269.335938 42.144531 269.335938 42.144531 270.839844 40.640625 Z M 270.839844 40.640625 "/>
<path style=" stroke:none;fill-rule:nonzero;fill:rgb(41.960785%,52.549022%,99.607843%);fill-opacity:1;" d="M 239.242188 40.640625 C 240.484375 41.136719 241.726562 41.632812 243.003906 42.144531 C 243.09375 45.171875 243.144531 48.195312 243.191406 51.222656 C 243.230469 52.503906 243.230469 52.503906 243.269531 53.808594 C 243.328125 58.894531 243.101562 62.121094 239.996094 66.226562 C 237.800781 68.066406 236.496094 68.449219 233.648438 68.8125 C 230.472656 68.425781 228.894531 67.507812 226.453125 65.472656 C 226.203125 64.730469 225.957031 63.984375 225.699219 63.214844 C 226.445312 62.097656 226.445312 62.097656 227.207031 60.957031 C 230.875 61.617188 230.875 61.617188 231.71875 62.464844 C 233.570312 62.652344 233.570312 62.652344 235.480469 62.464844 C 237.464844 60.480469 237.195312 59.515625 237.246094 56.75 C 237.265625 55.910156 237.289062 55.074219 237.3125 54.210938 C 237.335938 52.894531 237.335938 52.894531 237.363281 51.550781 C 237.394531 49.820312 237.433594 48.085938 237.480469 46.355469 C 237.492188 45.582031 237.507812 44.8125 237.523438 44.019531 C 237.738281 42.144531 237.738281 42.144531 239.242188 40.640625 Z M 239.242188 40.640625 "/>
<path style=" stroke:none;fill-rule:nonzero;fill:rgb(73.333335%,77.64706%,99.607843%);fill-opacity:1;" d="M 161 42.144531 C 160.132812 44 159.460938 45.191406 157.992188 46.660156 C 157.6875 48.40625 157.433594 50.164062 157.238281 51.929688 C 156.988281 51.929688 156.742188 51.929688 156.484375 51.929688 C 156.117188 46.496094 156.117188 46.496094 157.898438 43.648438 C 159.496094 42.144531 159.496094 42.144531 161 42.144531 Z M 161 42.144531 "/>
<path style=" stroke:none;fill-rule:nonzero;fill:rgb(96.862745%,97.254902%,99.607843%);fill-opacity:1;" d="M 202.378906 66.980469 C 201.882812 67.972656 201.386719 68.964844 200.875 69.988281 C 199.039062 69.707031 199.039062 69.707031 197.113281 69.238281 C 196.863281 68.742188 196.617188 68.242188 196.359375 67.730469 C 198.5625 66.996094 200.089844 66.917969 202.378906 66.980469 Z M 202.378906 66.980469 "/>
</g>
</svg>
